HIERARCHY
ROOT mixamorig:Hips
{
	OFFSET -0.000008 104.274872 1.554316
	CHANNELS 6 Xposition Yposition Zposition Xrotation Yrotation Zrotation
	JOINT mixamorig:Spine
	{
		OFFSET -0.000005 10.181595 0.131519
		CHANNELS 6 Xposition Yposition Zposition Xrotation Yrotation Zrotation
		JOINT mixamorig:Spine1
		{
			OFFSET -0.000000 9.893959 -1.470707
			CHANNELS 6 Xposition Yposition Zposition Xrotation Yrotation Zrotation
			JOINT mixamorig:Spine2
			{
				OFFSET -0.000000 9.220757 -1.370641
				CHANNELS 6 Xposition Yposition Zposition Xrotation Yrotation Zrotation
				JOINT mixamorig:Neck
				{
					OFFSET 0.000001 16.740417 -2.049036
					CHANNELS 6 Xposition Yposition Zposition Xrotation Yrotation Zrotation
					JOINT mixamorig:Head
					{
						OFFSET 0.000000 9.617874 1.685006
						CHANNELS 6 Xposition Yposition Zposition Xrotation Yrotation Zrotation
						JOINT mixamorig:HeadTop_End
						{
							OFFSET 0.000002 22.037354 7.501101
							CHANNELS 6 Xposition Yposition Zposition Xrotation Yrotation Zrotation
							End Site
							{
								OFFSET 0.000168 2310.654297 -282.823242
							}
						}
					}
				}
				JOINT mixamorig:RightShoulder
				{
					OFFSET -4.569970 11.014908 -2.160885
					CHANNELS 6 Xposition Yposition Zposition Xrotation Yrotation Zrotation
					JOINT mixamorig:RightArm
					{
						OFFSET -10.592851 -0.524811 -2.232101
						CHANNELS 6 Xposition Yposition Zposition Xrotation Yrotation Zrotation
						JOINT mixamorig:RightForeArm
						{
							OFFSET -27.841511 0.000031 -0.000004
							CHANNELS 6 Xposition Yposition Zposition Xrotation Yrotation Zrotation
							JOINT mixamorig:RightHand
							{
								OFFSET -28.328831 -0.000015 0.000015
								CHANNELS 6 Xposition Yposition Zposition Xrotation Yrotation Zrotation
								JOINT mixamorig:RightHandThumb1
								{
									OFFSET -2.464806 -1.573990 2.681852
									CHANNELS 6 Xposition Yposition Zposition Xrotation Yrotation Zrotation
									JOINT mixamorig:RightHandThumb2
									{
										OFFSET -3.215179 -1.872803 1.924282
										CHANNELS 6 Xposition Yposition Zposition Xrotation Yrotation Zrotation
										JOINT mixamorig:RightHandThumb3
										{
											OFFSET -2.654831 -1.527969 1.512609
											CHANNELS 6 Xposition Yposition Zposition Xrotation Yrotation Zrotation
											JOINT mixamorig:RightHandThumb4
											{
												OFFSET -2.018814 -1.152008 1.108052
												CHANNELS 6 Xposition Yposition Zposition Xrotation Yrotation Zrotation
												End Site
												{
													OFFSET -188.809540 -114.533607 132.431396
												}
											}
										}
									}
								}
								JOINT mixamorig:RightHandIndex1
								{
									OFFSET -9.108284 -0.517868 2.259835
									CHANNELS 6 Xposition Yposition Zposition Xrotation Yrotation Zrotation
									JOINT mixamorig:RightHandIndex2
									{
										OFFSET -3.699989 0.000000 0.001215
										CHANNELS 6 Xposition Yposition Zposition Xrotation Yrotation Zrotation
										JOINT mixamorig:RightHandIndex3
										{
											OFFSET -2.850006 0.000031 -0.000522
											CHANNELS 6 Xposition Yposition Zposition Xrotation Yrotation Zrotation
											JOINT mixamorig:RightHandIndex4
											{
												OFFSET -2.772186 -0.000015 -0.000020
												CHANNELS 6 Xposition Yposition Zposition Xrotation Yrotation Zrotation
												End Site
												{
													OFFSET -277.218445 0.000000 -0.050231
												}
											}
										}
									}
								}
								JOINT mixamorig:RightHandMiddle1
								{
									OFFSET -9.532516 -0.000031 -0.000023
									CHANNELS 6 Xposition Yposition Zposition Xrotation Yrotation Zrotation
									JOINT mixamorig:RightHandMiddle2
									{
										OFFSET -3.700005 -0.000015 0.003713
										CHANNELS 6 Xposition Yposition Zposition Xrotation Yrotation Zrotation
										JOINT mixamorig:RightHandMiddle3
										{
											OFFSET -2.949974 0.000015 -0.002054
											CHANNELS 6 Xposition Yposition Zposition Xrotation Yrotation Zrotation
											JOINT mixamorig:RightHandMiddle4
											{
												OFFSET -2.946640 0.000000 -0.000156
												CHANNELS 6 Xposition Yposition Zposition Xrotation Yrotation Zrotation
												End Site
												{
													OFFSET -294.664337 0.000000 -0.113670
												}
											}
										}
									}
								}
								JOINT mixamorig:RightHandRing1
								{
									OFFSET -9.103600 -0.043076 -1.865134
									CHANNELS 6 Xposition Yposition Zposition Xrotation Yrotation Zrotation
									JOINT mixamorig:RightHandRing2
									{
										OFFSET -3.379288 0.000000 -0.001055
										CHANNELS 6 Xposition Yposition Zposition Xrotation Yrotation Zrotation
										JOINT mixamorig:RightHandRing3
										{
											OFFSET -2.889687 -0.000015 0.000379
											CHANNELS 6 Xposition Yposition Zposition Xrotation Yrotation Zrotation
											JOINT mixamorig:RightHandRing4
											{
												OFFSET -2.638809 -0.000015 0.000941
												CHANNELS 6 Xposition Yposition Zposition Xrotation Yrotation Zrotation
												End Site
												{
													OFFSET -263.880371 0.000000 0.516020
												}
											}
										}
									}
								}
								JOINT mixamorig:RightHandPinky1
								{
									OFFSET -8.076683 -0.486710 -3.806280
									CHANNELS 6 Xposition Yposition Zposition Xrotation Yrotation Zrotation
									JOINT mixamorig:RightHandPinky2
									{
										OFFSET -3.600014 -0.000015 -0.003747
										CHANNELS 6 Xposition Yposition Zposition Xrotation Yrotation Zrotation
										JOINT mixamorig:RightHandPinky3
										{
											OFFSET -2.099983 0.000000 -0.005739
											CHANNELS 6 Xposition Yposition Zposition Xrotation Yrotation Zrotation
											JOINT mixamorig:RightHandPinky4
											{
												OFFSET -2.115768 -0.000031 -0.003680
												CHANNELS 6 Xposition Yposition Zposition Xrotation Yrotation Zrotation
												End Site
												{
													OFFSET -211.577087 0.000000 -0.350686
												}
											}
										}
									}
								}
							}
						}
					}
				}
				JOINT mixamorig:LeftShoulder
				{
					OFFSET 4.570447 11.014725 -2.160855
					CHANNELS 6 Xposition Yposition Zposition Xrotation Yrotation Zrotation
					JOINT mixamorig:LeftArm
					{
						OFFSET 10.592371 -0.524597 -2.232119
						CHANNELS 6 Xposition Yposition Zposition Xrotation Yrotation Zrotation
						JOINT mixamorig:LeftForeArm
						{
							OFFSET 27.841532 -0.000031 0.000026
							CHANNELS 6 Xposition Yposition Zposition Xrotation Yrotation Zrotation
							JOINT mixamorig:LeftHand
							{
								OFFSET 28.328846 -0.000061 0.000022
								CHANNELS 6 Xposition Yposition Zposition Xrotation Yrotation Zrotation
								JOINT mixamorig:LeftHandThumb1
								{
									OFFSET 2.466141 -1.576172 2.681732
									CHANNELS 6 Xposition Yposition Zposition Xrotation Yrotation Zrotation
									JOINT mixamorig:LeftHandThumb2
									{
										OFFSET 3.217812 -1.872070 1.916482
										CHANNELS 6 Xposition Yposition Zposition Xrotation Yrotation Zrotation
										JOINT mixamorig:LeftHandThumb3
										{
											OFFSET 2.656029 -1.528778 1.514513
											CHANNELS 6 Xposition Yposition Zposition Xrotation Yrotation Zrotation
											JOINT mixamorig:LeftHandThumb4
											{
												OFFSET 2.020889 -1.154053 1.115139
												CHANNELS 6 Xposition Yposition Zposition Xrotation Yrotation Zrotation
												End Site
												{
													OFFSET 190.885437 -115.081749 130.048782
												}
											}
										}
									}
								}
								JOINT mixamorig:LeftHandIndex1
								{
									OFFSET 9.109314 -0.518021 2.259871
									CHANNELS 6 Xposition Yposition Zposition Xrotation Yrotation Zrotation
									JOINT mixamorig:LeftHandIndex2
									{
										OFFSET 3.699989 0.000000 -0.000322
										CHANNELS 6 Xposition Yposition Zposition Xrotation Yrotation Zrotation
										JOINT mixamorig:LeftHandIndex3
										{
											OFFSET 2.850006 0.000000 0.000352
											CHANNELS 6 Xposition Yposition Zposition Xrotation Yrotation Zrotation
											JOINT mixamorig:LeftHandIndex4
											{
												OFFSET 2.774864 -0.000031 -0.000027
												CHANNELS 6 Xposition Yposition Zposition Xrotation Yrotation Zrotation
												End Site
												{
													OFFSET 277.486267 0.000000 -0.009857
												}
											}
										}
									}
								}
								JOINT mixamorig:LeftHandMiddle1
								{
									OFFSET 9.533394 0.000061 0.000044
									CHANNELS 6 Xposition Yposition Zposition Xrotation Yrotation Zrotation
									JOINT mixamorig:LeftHandMiddle2
									{
										OFFSET 3.699989 -0.000015 -0.000231
										CHANNELS 6 Xposition Yposition Zposition Xrotation Yrotation Zrotation
										JOINT mixamorig:LeftHandMiddle3
										{
											OFFSET 2.949997 -0.000015 -0.000059
											CHANNELS 6 Xposition Yposition Zposition Xrotation Yrotation Zrotation
											JOINT mixamorig:LeftHandMiddle4
											{
												OFFSET 2.952896 0.000031 0.000063
												CHANNELS 6 Xposition Yposition Zposition Xrotation Yrotation Zrotation
												End Site
												{
													OFFSET 295.289337 0.000000 0.022810
												}
											}
										}
									}
								}
								JOINT mixamorig:LeftHandRing1
								{
									OFFSET 9.104523 -0.042999 -1.865074
									CHANNELS 6 Xposition Yposition Zposition Xrotation Yrotation Zrotation
									JOINT mixamorig:LeftHandRing2
									{
										OFFSET 3.150009 -0.000031 0.000043
										CHANNELS 6 Xposition Yposition Zposition Xrotation Yrotation Zrotation
										JOINT mixamorig:LeftHandRing3
										{
											OFFSET 2.949982 -0.000015 0.000040
											CHANNELS 6 Xposition Yposition Zposition Xrotation Yrotation Zrotation
											JOINT mixamorig:LeftHandRing4
											{
												OFFSET 2.644348 0.000000 0.000057
												CHANNELS 6 Xposition Yposition Zposition Xrotation Yrotation Zrotation
												End Site
												{
													OFFSET 264.434631 0.000000 0.012105
												}
											}
										}
									}
								}
								JOINT mixamorig:LeftHandPinky1
								{
									OFFSET 8.077789 -0.486847 -3.806259
									CHANNELS 6 Xposition Yposition Zposition Xrotation Yrotation Zrotation
									JOINT mixamorig:LeftHandPinky2
									{
										OFFSET 3.599953 0.000031 0.014727
										CHANNELS 6 Xposition Yposition Zposition Xrotation Yrotation Zrotation
										JOINT mixamorig:LeftHandPinky3
										{
											OFFSET 2.100021 0.000015 0.007705
											CHANNELS 6 Xposition Yposition Zposition Xrotation Yrotation Zrotation
											JOINT mixamorig:LeftHandPinky4
											{
												OFFSET 2.125504 0.000031 0.007517
												CHANNELS 6 Xposition Yposition Zposition Xrotation Yrotation Zrotation
												End Site
												{
													OFFSET 212.550781 0.000000 0.625752
												}
											}
										}
									}
								}
							}
						}
					}
				}
			}
		}
	}
	JOINT mixamorig:RightUpLeg
	{
		OFFSET -8.207787 -6.751648 -1.599560
		CHANNELS 6 Xposition Yposition Zposition Xrotation Yrotation Zrotation
		JOINT mixamorig:RightLeg
		{
			OFFSET -0.000002 -44.370117 0.345942
			CHANNELS 6 Xposition Yposition Zposition Xrotation Yrotation Zrotation
			JOINT mixamorig:RightFoot
			{
				OFFSET 0.000003 -44.423679 -3.043532
				CHANNELS 6 Xposition Yposition Zposition Xrotation Yrotation Zrotation
				JOINT mixamorig:RightToeBase
				{
					OFFSET -0.000002 -8.728671 10.710558
					CHANNELS 6 Xposition Yposition Zposition Xrotation Yrotation Zrotation
					JOINT mixamorig:RightToe_End
					{
						OFFSET -0.000001 -0.000679 9.278119
						CHANNELS 6 Xposition Yposition Zposition Xrotation Yrotation Zrotation
						End Site
						{
							OFFSET 0.000000 -0.067690 927.812134
						}
					}
				}
			}
		}
	}
	JOINT mixamorig:LeftUpLeg
	{
		OFFSET 8.207793 -6.751686 -1.599556
		CHANNELS 6 Xposition Yposition Zposition Xrotation Yrotation Zrotation
		JOINT mixamorig:LeftLeg
		{
			OFFSET -0.000004 -44.370014 0.346954
			CHANNELS 6 Xposition Yposition Zposition Xrotation Yrotation Zrotation
			JOINT mixamorig:LeftFoot
			{
				OFFSET -0.000001 -44.423672 -3.044401
				CHANNELS 6 Xposition Yposition Zposition Xrotation Yrotation Zrotation
				JOINT mixamorig:LeftToeBase
				{
					OFFSET -0.000002 -8.728669 10.710558
					CHANNELS 6 Xposition Yposition Zposition Xrotation Yrotation Zrotation
					JOINT mixamorig:LeftToe_End
					{
						OFFSET -0.000003 -0.000679 9.278133
						CHANNELS 6 Xposition Yposition Zposition Xrotation Yrotation Zrotation
						End Site
						{
							OFFSET 0.000000 -0.068021 927.813477
						}
					}
				}
			}
		}
	}
}
MOTION
Frames: 3
Frame Time: 0.033333
0.000006 104.270477 1.554256 0.000010 0.000003 -0.000113 -0.000005 10.181587 0.131522 0.000001 -0.000003 0.000084 -0.000000 9.893967 -1.470711 0.000001 0.000000 -0.000000 -0.000000 9.220802 -1.370642 0.000000 -0.000000 -0.000000 0.000001 16.740433 -2.049030 0.000000 -0.000000 -0.000000 0.000000 9.617859 1.685014 0.000000 0.000000 0.000000 0.000002 22.037384 7.501101 0.000000 -0.000000 0.000000 -4.569968 11.014880 -2.160881 0.000008 0.000001 -0.000038 -10.592875 -0.524757 -2.231913 74.012702 27.410271 -20.830638 -27.841530 0.000015 0.000526 -59.805293 107.237781 75.948814 -28.328821 0.000005 0.000020 -0.000319 -0.000047 0.000007 -2.464497 -1.574026 2.682385 -11.040273 -148.439436 55.881756 -3.215212 -1.872480 1.924593 144.460605 34.146342 45.163212 -2.654955 -1.527874 1.513068 151.708091 27.503083 -25.601248 -2.018842 -1.152006 1.108053 0.000004 -0.000001 0.000002 -9.108387 -0.517567 2.260160 107.870065 17.086340 -23.373947 -3.700076 0.000313 0.001556 103.317779 13.955653 -17.563189 -2.850093 0.000368 -0.000234 102.862089 10.475703 -13.115260 -2.772157 -0.000015 -0.000021 -0.000000 -0.000000 0.000000 -9.532582 0.000268 0.000292 104.140051 15.586130 -20.101786 -3.700074 0.000329 0.004017 104.994515 12.035264 -15.520058 -2.950049 0.000342 -0.001733 105.533683 10.526519 -13.813942 -2.946626 0.000001 -0.000156 -0.000000 0.000000 0.000000 -9.103708 -0.042755 -1.864812 103.784547 16.940032 -21.444753 -3.379326 0.000328 -0.000765 106.616029 9.196962 -12.344299 -2.889753 0.000351 0.000688 109.321535 5.184119 -7.369092 -2.638826 -0.000017 0.000938 0.000000 -0.000001 -0.000002 -8.076748 -0.486382 -3.805989 95.651759 16.974757 -18.542413 -3.600043 0.000287 -0.003482 96.860210 7.694819 -8.276478 -2.100007 0.000307 -0.005466 98.298621 3.733714 -4.070649 -2.115776 -0.000054 -0.003684 -0.000003 0.000002 -0.000003 4.570446 11.014691 -2.160851 -0.000018 0.000010 -0.000021 10.592393 -0.524483 -2.232348 73.416235 -9.858570 7.358682 27.841816 0.000055 -0.000198 93.687840 -72.220986 75.767794 28.328831 -0.000029 0.000025 0.000019 -0.000089 0.000000 2.466261 -1.576034 2.681827 -167.747807 10.153326 72.510811 3.217780 -1.871704 1.916384 165.339673 -32.390161 -1.359254 2.656110 -1.528666 1.514467 148.590629 -24.537648 53.755279 2.020894 -1.154082 1.115157 0.000004 0.000002 0.000004 9.109387 -0.517892 2.259735 80.554220 -22.879220 19.448559 3.700065 0.000101 -0.000443 76.202392 -23.697852 18.699381 2.850065 0.000134 0.000215 74.060643 -18.643961 14.117200 2.774879 -0.000042 -0.000025 -0.000000 0.000001 -0.000003 9.533459 0.000161 -0.000075 75.370168 -20.955258 16.252912 3.700056 0.000116 -0.000355 80.098018 -19.071794 16.071920 2.950063 0.000118 -0.000177 78.899716 -21.752004 17.971095 2.952850 -0.000014 0.000064 0.000001 -0.000000 0.000000 9.104592 -0.042892 -1.865209 73.520873 -19.034194 14.278336 3.150050 0.000175 -0.000085 80.160002 -13.971493 11.775329 2.950013 0.000137 -0.000072 81.942428 -15.013454 13.057674 2.644331 0.000042 0.000062 0.000000 0.000003 0.000001 8.077835 -0.486752 -3.806406 70.569275 -18.504405 13.585076 3.599995 0.000162 0.014580 71.069095 -14.021305 10.411435 2.100041 0.000161 0.007555 74.754945 -13.487750 10.702252 2.125487 -0.000018 0.007515 -0.000002 0.000002 0.000000 -8.207786 -6.751667 -1.599560 -0.077001 -0.000003 0.000080 -0.000002 -44.370110 0.345938 0.153719 -0.000000 -0.000000 0.000000 -44.423679 -3.043532 -0.076700 0.000000 -0.000002 -0.000006 -8.728667 10.710559 -0.000009 -0.000000 -0.000000 -0.000001 -0.000679 9.278123 0.000000 -0.000000 -0.000000 8.207792 -6.751710 -1.599556 -0.074518 -0.000003 0.000081 -0.000002 -44.370014 0.346960 0.148822 0.000002 0.000000 -0.000001 -44.423664 -3.044403 -0.074314 0.000000 -0.000002 -0.000004 -8.728671 10.710558 0.000007 -0.000000 -0.000000 0.000000 -0.000680 9.278137 -0.000000 0.000000 -0.000001 
0.000006 104.270477 1.554256 0.000010 0.000003 -0.000113 -0.000005 10.181587 0.131522 0.000001 -0.000003 0.000084 -0.000000 9.893967 -1.470711 0.000001 0.000000 -0.000000 -0.000000 9.220802 -1.370642 0.000000 -0.000000 -0.000000 0.000001 16.740433 -2.049030 0.000000 -0.000000 -0.000000 0.000000 9.617859 1.685014 0.000000 0.000000 0.000000 0.000002 22.037384 7.501101 0.000000 -0.000000 0.000000 -4.569968 11.014880 -2.160881 0.000008 0.000001 -0.000038 -10.592868 -0.524782 -2.231868 73.930473 37.575196 -28.721413 -27.841536 -0.000001 0.000549 -55.854582 103.475433 67.810835 -28.328821 0.000021 0.000025 -0.000318 -0.000044 0.000010 -2.464433 -1.573989 2.682366 -18.414938 -145.676091 42.238546 -3.215211 -1.872463 1.924583 141.778813 33.409904 51.334769 -2.654975 -1.527848 1.513027 151.104275 28.999382 -13.918835 -2.018834 -1.151996 1.108063 0.000003 0.000001 0.000005 -9.108360 -0.517569 2.260159 109.267358 15.814577 -22.208857 -3.700059 0.000321 0.001566 105.650807 13.051149 -17.124684 -2.850098 0.000358 -0.000219 103.652519 9.833341 -12.487690 -2.772178 -0.000015 -0.000016 0.000001 -0.000001 -0.000000 -9.532577 0.000264 0.000282 103.596928 15.849324 -20.241344 -3.700079 0.000328 0.004036 105.035052 12.588226 -16.245902 -2.950047 0.000340 -0.001762 106.255149 11.448907 -15.215136 -2.946640 0.000001 -0.000152 0.000000 -0.000000 0.000000 -9.103685 -0.042755 -1.864817 102.283148 17.440958 -21.502489 -3.379340 0.000326 -0.000749 105.223818 11.323159 -14.805461 -2.889766 0.000347 0.000717 110.639612 7.873795 -11.427044 -2.638796 0.000016 0.000939 0.000000 0.000000 0.000001 -8.076752 -0.486382 -3.805997 93.727380 17.527567 -18.525563 -3.600054 0.000281 -0.003476 98.050576 9.307683 -10.296347 -2.100010 0.000323 -0.005435 102.226738 5.461696 -6.497837 -2.115768 -0.000044 -0.003673 -0.000002 0.000000 -0.000003 4.570446 11.014691 -2.160851 -0.000018 0.000010 -0.000021 10.592400 -0.524478 -2.232368 73.161004 -12.551541 9.331828 27.841810 0.000048 -0.000223 95.080523 -74.785852 79.746352 28.328808 -0.000028 0.000024 0.000020 -0.000089 0.000000 2.466235 -1.575992 2.681810 -164.001926 0.746910 57.880054 3.217868 -1.871831 1.916414 172.803800 -21.276669 35.856499 2.656098 -1.528689 1.514514 147.138421 -23.568241 66.480676 2.020887 -1.154068 1.115143 0.000005 0.000003 0.000004 9.109382 -0.517876 2.259753 83.301288 -23.585162 21.027043 3.700058 0.000130 -0.000461 80.005428 -14.977391 12.604497 2.850059 0.000187 0.000196 78.851775 -10.880455 8.953196 2.774888 -0.000014 -0.000030 0.000000 0.000002 -0.000000 9.533459 0.000169 -0.000071 78.244728 -22.170589 18.100358 3.700043 0.000162 -0.000372 81.419933 -11.813870 10.172151 2.950042 0.000159 -0.000214 80.676705 -11.498098 9.775946 2.952880 -0.000015 0.000063 0.000000 0.000003 0.000000 9.104573 -0.042881 -1.865224 77.201102 -20.865251 16.725296 3.150055 0.000181 -0.000110 82.498857 -12.737481 11.182479 2.950013 0.000165 -0.000091 81.505358 -10.255275 8.844914 2.644308 0.000031 0.000054 -0.000000 -0.000000 0.000001 8.077835 -0.486753 -3.806399 70.787398 -21.037249 15.477011 3.600013 0.000142 0.014573 71.523152 -16.312461 12.172451 2.100013 0.000139 0.007535 73.648475 -12.293029 9.586241 2.125502 -0.000013 0.007512 -0.000001 0.000004 0.000000 -8.207786 -6.751667 -1.599560 -0.077001 -0.000003 0.000080 -0.000002 -44.370110 0.345938 0.153719 -0.000000 -0.000000 0.000000 -44.423679 -3.043532 -0.076700 0.000000 -0.000002 -0.000006 -8.728667 10.710559 -0.000009 -0.000000 -0.000000 -0.000001 -0.000679 9.278123 0.000000 -0.000000 -0.000000 8.207792 -6.751710 -1.599556 -0.074518 -0.000003 0.000081 -0.000002 -44.370014 0.346960 0.148822 0.000002 0.000000 -0.000001 -44.423664 -3.044403 -0.074314 0.000000 -0.000002 -0.000004 -8.728671 10.710558 0.000007 -0.000000 -0.000000 0.000000 -0.000680 9.278137 -0.000000 0.000000 -0.000001 
0.000006 104.270477 1.554256 0.000010 0.000003 -0.000113 -0.000005 10.181587 0.131522 0.000001 -0.000003 0.000084 -0.000000 9.893967 -1.470711 0.000001 0.000000 -0.000000 -0.000000 9.220802 -1.370642 0.000000 -0.000000 -0.000000 0.000001 16.740433 -2.049030 0.000000 -0.000000 -0.000000 0.000000 9.617859 1.685014 0.000000 0.000000 0.000000 0.000002 22.037384 7.501101 0.000000 -0.000000 0.000000 -4.569968 11.014880 -2.160881 0.000008 0.000001 -0.000038 -10.592854 -0.524801 -2.231837 72.823463 43.172646 -32.537129 -27.841522 -0.000001 0.000539 -50.300095 101.884217 60.106204 -28.328838 0.000008 0.000024 -0.000321 -0.000046 0.000008 -2.464550 -1.574088 2.682361 9.328197 -146.608945 81.470469 -3.214906 -1.872418 1.924650 126.620355 12.793220 124.244064 -2.654945 -1.527807 1.513012 156.951819 31.671977 2.683593 -2.018830 -1.152007 1.108074 -0.000001 -0.000003 0.000000 -9.108401 -0.517576 2.260195 112.537844 16.896332 -25.151647 -3.700068 0.000301 0.001580 110.740678 12.165688 -17.510134 -2.850082 0.000377 -0.000208 108.424834 8.382267 -11.607279 -2.772168 -0.000014 -0.000018 -0.000000 0.000002 -0.000001 -9.532590 0.000273 0.000284 103.640744 13.749872 -17.610757 -3.700051 0.000349 0.004019 105.082515 9.229518 -11.908413 -2.950047 0.000359 -0.001786 104.672027 9.183593 -11.871466 -2.946625 -0.000000 -0.000165 0.000001 0.000001 -0.000000 -9.103697 -0.042738 -1.864853 101.425338 15.107434 -18.360302 -3.379326 0.000329 -0.000751 105.412078 9.617560 -12.629022 -2.889749 0.000342 0.000680 107.679913 7.025556 -9.665304 -2.638810 -0.000000 0.000938 -0.000000 -0.000000 0.000000 -8.076747 -0.486376 -3.805995 95.588730 14.987001 -16.342590 -3.600043 0.000285 -0.003469 99.374956 8.199166 -9.240674 -2.100033 0.000319 -0.005433 102.897387 5.851445 -7.062889 -2.115777 -0.000056 -0.003678 0.000001 0.000002 -0.000003 4.570446 11.014691 -2.160851 -0.000018 0.000010 -0.000021 10.592422 -0.524471 -2.232370 72.592487 -20.332049 15.005775 27.841816 0.000043 -0.000216 95.146919 -75.812525 80.858307 28.328815 -0.000029 0.000015 0.000020 -0.000087 -0.000000 2.466265 -1.575956 2.681807 -161.011246 -0.681826 53.898973 3.217862 -1.871840 1.916428 169.219713 -17.638154 49.248854 2.656104 -1.528696 1.514497 144.201317 -25.387253 61.647573 2.020883 -1.154082 1.115139 0.000004 0.000002 0.000003 9.109389 -0.517881 2.259756 85.907483 -22.417480 20.893909 3.700050 0.000150 -0.000463 81.476220 -14.211649 12.271442 2.850059 0.000189 0.000209 80.728779 -10.807949 9.193175 2.774895 -0.000046 -0.000026 0.000001 0.000000 -0.000000 9.533472 0.000175 -0.000097 79.830554 -21.101171 17.704873 3.700040 0.000162 -0.000381 83.341408 -11.159092 9.936324 2.950052 0.000180 -0.000216 83.535420 -10.258536 9.169304 2.952851 -0.000015 0.000064 -0.000001 0.000002 -0.000000 9.104599 -0.042881 -1.865221 78.986903 -20.659663 17.087402 3.150050 0.000180 -0.000098 84.694803 -13.077005 11.929380 2.950032 0.000180 -0.000086 83.087093 -9.658805 8.564360 2.644325 0.000015 0.000054 -0.000001 -0.000002 0.000000 8.077845 -0.486753 -3.806385 71.885590 -21.077790 15.818592 3.600000 0.000144 0.014566 72.814523 -16.863956 12.874175 2.100018 0.000169 0.007549 75.627625 -12.065799 9.755347 2.125495 -0.000031 0.007516 0.000001 -0.000000 0.000000 -8.207786 -6.751667 -1.599560 -0.077001 -0.000003 0.000080 -0.000002 -44.370110 0.345938 0.153719 -0.000000 -0.000000 0.000000 -44.423679 -3.043532 -0.076700 0.000000 -0.000002 -0.000006 -8.728667 10.710559 -0.000009 -0.000000 -0.000000 -0.000001 -0.000679 9.278123 0.000000 -0.000000 -0.000000 8.207792 -6.751710 -1.599556 -0.074518 -0.000003 0.000081 -0.000002 -44.370014 0.346960 0.148822 0.000002 0.000000 -0.000001 -44.423664 -3.044403 -0.074314 0.000000 -0.000002 -0.000004 -8.728671 10.710558 0.000007 -0.000000 -0.000000 0.000000 -0.000680 9.278137 -0.000000 0.000000 -0.000001 
